HIERARCHY
ROOT Hips
{
  OFFSET 23.3053 40.0235 39.798
  CHANNELS 6 Xposition Yposition Zposition Zrotation Xrotation Yrotation
  JOINT LeftHip
  {
    OFFSET 3.43 2.84217e-013 -3.55271e-014
    CHANNELS 6 Xposition Yposition Zposition Zrotation Xrotation Yrotation
    JOINT LeftKnee
    {
      OFFSET 0 -18.47 2.4869e-014
      CHANNELS 6 Xposition Yposition Zposition Zrotation Xrotation Yrotation
      JOINT LeftAnkle
      {
        OFFSET -3.55271e-015 -17.95 8.88178e-016
        CHANNELS 6 Xposition Yposition Zposition Zrotation Xrotation Yrotation
        End Site
        {
          OFFSET 0 -3.12 0
        }
      }
    }
  }
  JOINT RightHip
  {
    OFFSET -3.43 0 3.19744e-014
    CHANNELS 6 Xposition Yposition Zposition Zrotation Xrotation Yrotation
    JOINT RightKnee
    {
      OFFSET 0 -18.47 0
      CHANNELS 6 Xposition Yposition Zposition Zrotation Xrotation Yrotation
      JOINT RightAnkle
      {
        OFFSET 1.77636e-014 -17.95 0
        CHANNELS 6 Xposition Yposition Zposition Zrotation Xrotation Yrotation
        End Site
        {
          OFFSET 0 -3.12 0
        }
      }
    }
  }
  JOINT Chest
  {
    OFFSET 2.84217e-014 4.57 4.61853e-014
    CHANNELS 6 Xposition Yposition Zposition Zrotation Xrotation Yrotation
    JOINT Chest2
    {
      OFFSET -4.26326e-014 6.57 -4.44089e-015
      CHANNELS 6 Xposition Yposition Zposition Zrotation Xrotation Yrotation
      JOINT LeftCollar
      {
        OFFSET 1.06 4.19 1.76
        CHANNELS 6 Xposition Yposition Zposition Zrotation Xrotation Yrotation
        JOINT LeftShoulder
        {
          OFFSET 5.81 0 -4.88498e-015
          CHANNELS 6 Xposition Yposition Zposition Zrotation Xrotation Yrotation
          JOINT LeftElbow
          {
            OFFSET 1.42109e-014 -12.08 7.81597e-014
            CHANNELS 6 Xposition Yposition Zposition Zrotation Xrotation Yrotation
            JOINT LeftWrist
            {
              OFFSET -7.10543e-015 -9.82 -3.55271e-015
              CHANNELS 6 Xposition Yposition Zposition Zrotation Xrotation Yrotation
              End Site
              {
                OFFSET 0 -7.37 0
              }
            }
          }
        }
      }
      JOINT RightCollar
      {
        OFFSET -1.06 4.19 1.76
        CHANNELS 6 Xposition Yposition Zposition Zrotation Xrotation Yrotation
        JOINT RightShoulder
        {
          OFFSET -6.06 -7.10543e-015 0
          CHANNELS 6 Xposition Yposition Zposition Zrotation Xrotation Yrotation
          JOINT RightElbow
          {
            OFFSET 2.84217e-014 -11.08 -2.4869e-014
            CHANNELS 6 Xposition Yposition Zposition Zrotation Xrotation Yrotation
            JOINT RightWrist
            {
              OFFSET -1.42109e-014 -9.82 -2.66454e-015
              CHANNELS 6 Xposition Yposition Zposition Zrotation Xrotation Yrotation
              End Site
              {
                OFFSET 0 -7.14001 0
              }
            }
          }
        }
      }
      JOINT Neck
      {
        OFFSET 1.42109e-014 4.05 -6.21725e-015
        CHANNELS 6 Xposition Yposition Zposition Zrotation Xrotation Yrotation
        JOINT Head
        {
          OFFSET -1.06581e-014 5.19 0
          CHANNELS 6 Xposition Yposition Zposition Zrotation Xrotation Yrotation
          End Site
          {
            OFFSET 0 4.14001 0
          }
        }
      }
    }
  }
}
MOTION
Frames:	6
Frame Time:	0.0333333
40.0559 39.4948 27.4911 -9.61679 0.546427 -91.6843 3.43 -2.39253e-014 3.55596e-014 1.38225 6.39809 6.06964 0 -18.47 -5.42472e-012 0.201231 16.5527 19.6524 -3.55271e-015 -17.95 8.88178e-016 -5.43803 -12.1071 -0.577109 -3.43 2.73785e-013 -7.22037e-014 -9.45124 4.82715 -10.2407 0 -18.47 0 -0.650018 4.61034 0.40477 -1.27547e-012 -17.95 6.6472e-012 9.20961 1.87967 -0.151456 1.42981e-012 4.57 -2.91929e-013 -1.52961 6.4866 2.58372 -1.04e-011 6.57 -4.44089e-015 -1.63017 5.86625 2.24568 1.06 4.19 1.76 -8.61224 0.575316 4.43329 5.81 9.89765e-013 -4.88498e-015 42.5491 -11.8106 -6.66119 3.89916e-012 -12.08 7.70293e-013 -19.2256 -45.8478 -43.689 -7.10543e-015 -9.82 -3.55271e-015 15.2484 15.021 -2.00661 -1.06 4.19 1.76 10.4076 0.547462 -4.45238 -6.06 1.04222e-014 7.3163e-014 -50.8587 -16.0949 -23.8909 2.84217e-014 -11.08 -2.91408e-012 1.19079 -33.3695 -17.2102 -1.42109e-014 -9.82 -2.66454e-015 -11.6785 2.61588 0.268525 -1.72356e-012 4.05 -6.21725e-015 0.772408 12.2629 -0.048526 -1.06581e-014 5.19 0 -0.247856 4.3411 -0.291329 
39.9741 39.5781 27.2302 -9.47969 0.787569 -91.5409 3.43 -1.20348e-013 1.52955e-014 1.88823 7.24931 6.15771 0 -18.47 -5.41739e-012 0.371189 14.7942 19.3896 -3.55271e-015 -17.95 8.88178e-016 -5.57851 -11.2004 -0.547432 -3.43 2.12719e-013 -5.49929e-014 -8.64412 5.00564 -9.86249 0 -18.47 0 -0.753557 4.23858 -0.270211 -1.27757e-012 -17.95 6.65398e-012 8.87179 1.89134 -0.146697 1.52144e-012 4.57 -3.24416e-013 -1.23414 5.94188 2.27014 -1.04468e-011 6.57 -4.44089e-015 -1.34453 5.37226 1.97865 1.06 4.19 1.76 -8.37639 0.567116 4.56781 5.81 9.871e-013 -4.88498e-015 42.5879 -17.7228 -7.89163 3.91266e-012 -12.08 8.05742e-013 -18.3603 -48.7688 -40.9083 -7.10543e-015 -9.82 -3.55271e-015 17.3945 12.1598 -1.87511 -1.06 4.19 1.76 8.967 0.586722 -4.07628 -6.06 -1.07479e-013 6.04401e-014 -57.1469 -22.737 -28.9877 2.84217e-014 -11.08 -2.92744e-012 -0.112852 -27.2838 -13.669 -1.42109e-014 -9.82 -2.66454e-015 -11.6977 0.463158 0.0448096 -1.72799e-012 4.05 -6.21725e-015 0.612251 12.1562 0.0628761 -1.06581e-014 5.19 0 0.03552 3.76606 -0.251162 
39.8873 39.6368 26.968 -9.13072 0.893669 -91.3811 3.43 4.98213e-015 5.5527e-015 2.25531 7.88528 6.08599 0 -18.47 -5.40974e-012 0.553972 13.1288 18.9467 -3.55271e-015 -17.95 8.88178e-016 -5.74416 -10.3996 -0.523164 -3.43 8.79668e-014 -2.14273e-014 -8.09518 5.0744 -9.79569 0 -18.47 0 -0.608894 3.69106 -1.05193 -1.27963e-012 -17.95 6.66056e-012 8.38917 2.04766 -0.150163 1.61273e-012 4.57 -3.53768e-013 -0.988378 5.13308 2.11548 -1.0493e-011 6.57 -4.44089e-015 -1.11068 4.63755 1.85166 1.06 4.19 1.76 -8.65918 0.556485 4.68134 5.81 9.83264e-013 -4.88498e-015 42.5721 -22.086 -10.2798 3.92586e-012 -12.08 8.39881e-013 -17.5524 -52.1516 -38.0421 -7.10543e-015 -9.82 -3.55271e-015 16.3323 10.2449 -1.47331 -1.06 4.19 1.76 7.29381 0.616569 -3.71811 -6.06 -1.6359e-013 4.75775e-014 -65.3175 -29.363 -35.0974 2.84217e-014 -11.08 -2.9391e-012 -1.16897 -17.088 -13.8889 -1.42109e-014 -9.82 -2.66454e-015 -11.7722 -1.98541 -0.199794 -1.7324e-012 4.05 -6.21725e-015 0.467208 12.5967 -0.149704 -1.06581e-014 5.19 0 0.465948 2.7293 -0.526716 
39.805 39.6825 26.6961 -8.60394 0.81712 -91.0422 3.43 8.97026e-015 -9.04832e-015 2.5135 8.33867 5.95548 0 -18.47 -5.40178e-012 0.718755 11.3828 18.5376 -3.55271e-015 -17.95 8.88178e-016 -5.91198 -9.52029 -0.492738 -3.43 -6.93589e-014 3.1352e-014 -7.71963 5.14685 -9.74054 0 -18.47 0 -0.500277 2.84577 -1.55668 -1.28165e-012 -17.95 6.66693e-012 8.01353 2.27634 -0.159454 1.70367e-012 4.57 -3.79624e-013 -0.969051 4.17508 2.09505 -1.05386e-011 6.57 -4.44089e-015 -1.08958 3.76404 1.82853 1.06 4.19 1.76 -8.37612 0.569911 4.52683 5.81 9.78263e-013 -4.88498e-015 41.5551 -24.705 -13.7051 3.93875e-012 -12.08 8.72724e-013 -17.0567 -54.9259 -37.0385 -7.10543e-015 -9.82 -3.55271e-015 16.4682 8.27794 -1.19869 -1.06 4.19 1.76 6.03864 0.622756 -3.62047 -6.06 -2.12564e-013 3.45748e-014 -76.0027 -35.8347 -44.2226 2.84217e-014 -11.08 -2.9491e-012 -2.62006 -3.61886 -16.9638 -1.42109e-014 -9.82 -2.66454e-015 -10.625 -3.1132 -0.292574 -1.73679e-012 4.05 -6.21725e-015 0.737682 13.3729 -0.539372 -1.06581e-014 5.19 0 0.955317 1.26692 -0.865508 
39.7118 39.7187 26.4352 -8.25003 0.74186 -90.6979 3.43 3.12094e-014 3.71092e-014 2.70018 8.94989 5.80588 0 -18.47 -5.39352e-012 0.901212 9.60867 18.2635 -3.55271e-015 -17.95 8.88178e-016 -6.07941 -8.60171 -0.457615 -3.43 -2.28147e-013 1.20067e-013 -7.33628 5.47731 -9.64405 0 -18.47 0 -0.443477 1.98501 -1.86481 -1.28365e-012 -17.95 6.6731e-012 7.66266 2.39398 -0.160404 1.79426e-012 4.57 -4.01622e-013 -1.01562 3.60134 2.04846 -1.05835e-011 6.57 -4.44089e-015 -1.12851 3.238 1.78158 1.06 4.19 1.76 -7.71623 0.589277 4.31948 5.81 9.72102e-013 -4.88498e-015 39.3821 -26.2296 -17.0087 3.95134e-012 -12.08 9.04285e-013 -16.5372 -57.1023 -37.5447 -7.10543e-015 -9.82 -3.55271e-015 16.9358 7.41394 -1.10607 -1.06 4.19 1.76 4.48319 0.624703 -3.54874 -6.06 -2.54111e-013 2.14313e-014 -83.0322 -37.6105 -51.8846 2.84217e-014 -11.08 -2.95746e-012 -4.46275 -2.18707 -22.5808 -1.42109e-014 -9.82 -2.66454e-015 -12.1938 -0.255871 -0.0197031 -1.74115e-012 4.05 -6.21725e-015 1.10107 13.306 -0.931748 -1.06581e-014 5.19 0 1.3014 0.438561 -1.13724 
39.6442 39.747 26.1772 -7.80654 0.675416 -90.1486 3.43 5.06175e-014 2.2897e-013 2.97258 9.2909 5.65609 0 -18.47 -5.38493e-012 1.10623 8.09713 17.7749 -3.55271e-015 -17.95 8.88178e-016 -6.27837 -7.77997 -0.427344 -3.43 -3.57285e-013 2.09319e-013 -6.88594 5.56049 -9.50744 0 -18.47 0 -0.446497 1.58325 -2.62161 -1.28561e-012 -17.95 6.67908e-012 7.33026 2.26081 -0.144865 1.8845e-012 4.57 -4.19402e-013 -1.0263 3.15226 1.6383 -1.06277e-011 6.57 -4.44089e-015 -1.09683 2.83344 1.40115 1.06 4.19 1.76 -7.78435 0.587205 4.34265 5.81 9.64788e-013 -4.88498e-015 37.2942 -26.1764 -19.9655 3.96362e-012 -12.08 9.34582e-013 -16.0187 -59.1788 -38.792 -7.10543e-015 -9.82 -3.55271e-015 16.0118 7.39754 -1.04138 -1.06 4.19 1.76 2.4553 0.630641 -3.23314 -6.06 -2.87937e-013 8.14653e-015 -89.5154 -38.933 -59.2539 2.84217e-014 -11.08 -2.96421e-012 -6.30174 -2.37041 -25.9877 -1.42109e-014 -9.82 -2.66454e-015 -16.5701 2.97947 0.441105 -1.74549e-012 4.05 -6.21725e-015 1.28073 13.0726 -1.08303 -1.06581e-014 5.19 0 1.28319 -0.59132 -1.14106 
